# xmcd
#
# Track frame offsets:
#	150
#	14862
#	33027
#
# Disc length: 723 seconds
#
# Revision: 1
# Processed by: cddbd v1.4PL0 Copyright (c) Steve Scherf et al.
# Submitted via: audiograbber 1.80
#
DISCID=1c02d103
DTITLE=Maggie Reilly - Always you (Maxi)
DYEAR=1900
DGENRE=
TTITLE0=Always you (Radio Edit)
TTITLE1=Always you (Album Edit)
TTITLE2=Talking to myself
EXTD=
EXTT0=
EXTT1=
EXTT2=
PLAYORDER=
